HIERARCHY
ROOT newVegas:Hips
{
	OFFSET 0.000000 96.479958 0.000000
	CHANNELS 6 Xposition Yposition Zposition Xrotation Yrotation Zrotation
	JOINT newVegas:Pelvis
	{
		OFFSET 0.000000 0.000000 0.000000
		CHANNELS 3 Xrotation Yrotation Zrotation
		JOINT newVegas:LeftUpLeg
		{
			OFFSET 18.735201 -5.666702 -4.541200
			CHANNELS 3 Xrotation Yrotation Zrotation
			JOINT newVegas:LeftLeg
			{
				OFFSET -0.021200 -31.938179 0.493100
				CHANNELS 3 Xrotation Yrotation Zrotation
				JOINT newVegas:LeftFoot
				{
					OFFSET 0.021200 -31.938179 -4.336299
					CHANNELS 3 Xrotation Yrotation Zrotation
					JOINT newVegas:LeftToeBase
					{
						OFFSET 0.943001 -26.722000 15.023500
						CHANNELS 3 Xrotation Yrotation Zrotation
						End Site
						{
							OFFSET 0.000000 30.670183 0.000000
						}
					}
				}
				JOINT newVegas:Left_PantLeg
				{
					OFFSET 0.663870 -9.044666 -1.108900
					CHANNELS 3 Xrotation Yrotation Zrotation
					End Site
					{
						OFFSET 1.415995 20.635357 0.000000
					}
				}
			}
		}
		JOINT newVegas:RightUpLeg
		{
			OFFSET -18.735201 -5.666702 -4.541200
			CHANNELS 3 Xrotation Yrotation Zrotation
			JOINT newVegas:RightLeg
			{
				OFFSET 0.018946 -31.938133 0.493100
				CHANNELS 3 Xrotation Yrotation Zrotation
				JOINT newVegas:RightFoot
				{
					OFFSET -0.018946 -31.938126 -4.336299
					CHANNELS 3 Xrotation Yrotation Zrotation
					JOINT newVegas:RightToeBase
					{
						OFFSET -0.943001 -26.722004 15.023500
						CHANNELS 3 Xrotation Yrotation Zrotation
						End Site
						{
							OFFSET 0.000000 30.670187 0.000000
						}
					}
				}
				JOINT newVegas:Right_PantLeg
				{
					OFFSET -0.661674 -9.044716 -1.108900
					CHANNELS 3 Xrotation Yrotation Zrotation
					End Site
					{
						OFFSET -1.415958 20.635269 0.000000
					}
				}
			}
		}
	}
	JOINT newVegas:Spine
	{
		OFFSET 0.000000 10.199997 -0.299500
		CHANNELS 3 Xrotation Yrotation Zrotation
		JOINT newVegas:Spine1
		{
			OFFSET 0.000000 11.900002 -1.516600
			CHANNELS 3 Xrotation Yrotation Zrotation
			JOINT newVegas:Spine2
			{
				OFFSET 0.000000 13.600006 -2.842500
				CHANNELS 3 Xrotation Yrotation Zrotation
				JOINT newVegas:Neck
				{
					OFFSET 0.000000 9.624100 -2.890100
					CHANNELS 3 Xrotation Yrotation Zrotation
					JOINT newVegas:Head
					{
						OFFSET 0.000000 14.068802 -1.351900
						CHANNELS 3 Xrotation Yrotation Zrotation
						JOINT newVegas:Hair_Back
						{
							OFFSET 0.000000 3.231903 -17.524799
							CHANNELS 3 Xrotation Yrotation Zrotation
							End Site
							{
								OFFSET 0.000000 19.849884 0.000000
							}
						}
						JOINT newVegas:Hair_Front
						{
							OFFSET 0.000000 31.260406 4.573800
							CHANNELS 3 Xrotation Yrotation Zrotation
							JOINT newVegas:Hair_Front1
							{
								OFFSET 0.000000 2.284103 11.993300
								CHANNELS 3 Xrotation Yrotation Zrotation
								JOINT newVegas:Hair_Front2
								{
									OFFSET 0.000000 2.284103 11.993300
									CHANNELS 3 Xrotation Yrotation Zrotation
									End Site
									{
										OFFSET 0.000000 12.208862 0.000000
									}
								}
							}
						}
						JOINT newVegas:Jowel
						{
							OFFSET 0.000000 -7.458206 6.864100
							CHANNELS 3 Xrotation Yrotation Zrotation
							End Site
							{
								OFFSET 0.000000 19.849884 0.000000
							}
						}
					}
				}
				JOINT newVegas:LeftShoulder
				{
					OFFSET 15.263000 10.923401 -0.547700
					CHANNELS 3 Xrotation Yrotation Zrotation
					JOINT newVegas:LeftArm
					{
						OFFSET 25.438599 -2.830597 -13.032500
						CHANNELS 3 Xrotation Yrotation Zrotation
						JOINT newVegas:LeftForeArm
						{
							OFFSET 29.960503 0.000000 0.000000
							CHANNELS 3 Xrotation Yrotation Zrotation
							JOINT newVegas:LeftHand
							{
								OFFSET 27.849251 0.000000 0.000000
								CHANNELS 3 Xrotation Yrotation Zrotation
								JOINT newVegas:LeftHandThumb1
								{
									OFFSET 4.487587 -3.305161 6.305391
									CHANNELS 3 Xrotation Yrotation Zrotation
									JOINT newVegas:LeftHandThumb2
									{
										OFFSET 5.480453 -3.164139 3.164143
										CHANNELS 3 Xrotation Yrotation Zrotation
										JOINT newVegas:LeftHandThumb3
										{
											OFFSET 5.159721 -2.978973 2.978967
											CHANNELS 3 Xrotation Yrotation Zrotation
											End Site
											{
												OFFSET 2.494507 5.926697 1.738678
											}
										}
									}
								}
								JOINT newVegas:LeftHandIndex1
								{
									OFFSET 18.578728 -0.527832 5.208049
									CHANNELS 3 Xrotation Yrotation Zrotation
									JOINT newVegas:LeftHandIndex2
									{
										OFFSET 3.192009 0.000000 0.000000
										CHANNELS 3 Xrotation Yrotation Zrotation
										JOINT newVegas:LeftHandIndex3
										{
											OFFSET 3.835129 0.000000 0.000000
											CHANNELS 3 Xrotation Yrotation Zrotation
											End Site
											{
												OFFSET -0.034599 3.816971 0.371180
											}
										}
									}
								}
								JOINT newVegas:LeftHandMiddle1
								{
									OFFSET 18.476105 0.000000 0.000000
									CHANNELS 3 Xrotation Yrotation Zrotation
									JOINT newVegas:LeftHandMiddle2
									{
										OFFSET 3.324875 0.000000 0.000000
										CHANNELS 3 Xrotation Yrotation Zrotation
										JOINT newVegas:LeftHandMiddle3
										{
											OFFSET 4.596550 0.000000 0.000000
											CHANNELS 3 Xrotation Yrotation Zrotation
											End Site
											{
												OFFSET 0.057701 4.578827 0.399218
											}
										}
									}
								}
								JOINT newVegas:LeftHandRing1
								{
									OFFSET 17.732719 0.121887 -4.201567
									CHANNELS 3 Xrotation Yrotation Zrotation
									JOINT newVegas:LeftHandRing2
									{
										OFFSET 2.733170 0.000000 0.000000
										CHANNELS 3 Xrotation Yrotation Zrotation
										JOINT newVegas:LeftHandRing3
										{
											OFFSET 3.178268 0.000000 0.000000
											CHANNELS 3 Xrotation Yrotation Zrotation
											End Site
											{
												OFFSET 0.119102 3.170624 0.185394
											}
										}
									}
								}
								JOINT newVegas:LeftHandPinky1
								{
									OFFSET 15.989624 -0.606689 -7.535461
									CHANNELS 3 Xrotation Yrotation Zrotation
									JOINT newVegas:LeftHandPinky2
									{
										OFFSET 2.538986 0.000000 0.000000
										CHANNELS 3 Xrotation Yrotation Zrotation
										JOINT newVegas:LeftHandPinky3
										{
											OFFSET 2.593102 0.000000 0.000000
											CHANNELS 3 Xrotation Yrotation Zrotation
											End Site
											{
												OFFSET -0.150902 2.584198 0.152708
											}
										}
									}
								}
							}
							JOINT newVegas:Left_Sleeve
							{
								OFFSET 0.267448 -0.649796 0.577675
								CHANNELS 3 Xrotation Yrotation Zrotation
								End Site
								{
									OFFSET 0.000000 15.991241 0.000000
								}
							}
							JOINT newVegas:Left_CapeC
							{
								OFFSET 15.715958 -8.608795 -6.935905
								CHANNELS 3 Xrotation Yrotation Zrotation
								JOINT newVegas:Left_CapeC1
								{
									OFFSET 0.000000 -8.688499 0.000000
									CHANNELS 3 Xrotation Yrotation Zrotation
									End Site
									{
										OFFSET 0.000000 8.688499 0.000000
									}
								}
							}
						}
						JOINT newVegas:Left_CapeB
						{
							OFFSET 26.118385 -8.608795 -7.079235
							CHANNELS 3 Xrotation Yrotation Zrotation
							JOINT newVegas:Left_CapeB1
							{
								OFFSET 0.000000 -8.688499 0.000000
								CHANNELS 3 Xrotation Yrotation Zrotation
								End Site
								{
									OFFSET 0.000000 8.688499 0.000000
								}
							}
						}
						JOINT newVegas:Left_CapeA
						{
							OFFSET 5.115639 -8.608795 -10.395809
							CHANNELS 3 Xrotation Yrotation Zrotation
							JOINT newVegas:Left_CapeA1
							{
								OFFSET 0.000000 -8.688499 0.000000
								CHANNELS 3 Xrotation Yrotation Zrotation
								End Site
								{
									OFFSET 0.000000 8.688499 0.000000
								}
							}
						}
					}
				}
				JOINT newVegas:RightShoulder
				{
					OFFSET -15.263000 10.923401 -0.547700
					CHANNELS 3 Xrotation Yrotation Zrotation
					JOINT newVegas:RightArm
					{
						OFFSET -25.438599 -2.830597 -13.032500
						CHANNELS 3 Xrotation Yrotation Zrotation
						JOINT newVegas:RightForeArm
						{
							OFFSET -29.960503 0.000000 0.000000
							CHANNELS 3 Xrotation Yrotation Zrotation
							JOINT newVegas:RightHand
							{
								OFFSET -27.849251 0.000000 0.000000
								CHANNELS 3 Xrotation Yrotation Zrotation
								JOINT newVegas:RightHandThumb1
								{
									OFFSET -4.487587 -3.305161 6.305391
									CHANNELS 3 Xrotation Yrotation Zrotation
									JOINT newVegas:RightHandThumb2
									{
										OFFSET -5.480453 -3.164139 3.164143
										CHANNELS 3 Xrotation Yrotation Zrotation
										JOINT newVegas:RightHandThumb3
										{
											OFFSET -5.159721 -2.978973 2.978967
											CHANNELS 3 Xrotation Yrotation Zrotation
											End Site
											{
												OFFSET -2.494507 5.926697 1.738678
											}
										}
									}
								}
								JOINT newVegas:RightHandIndex1
								{
									OFFSET -18.578728 -0.527832 5.208049
									CHANNELS 3 Xrotation Yrotation Zrotation
									JOINT newVegas:RightHandIndex2
									{
										OFFSET -3.192009 0.000000 0.000000
										CHANNELS 3 Xrotation Yrotation Zrotation
										JOINT newVegas:RightHandIndex3
										{
											OFFSET -3.835129 0.000000 0.000000
											CHANNELS 3 Xrotation Yrotation Zrotation
											End Site
											{
												OFFSET 0.034599 3.816971 0.371180
											}
										}
									}
								}
								JOINT newVegas:RightHandMiddle1
								{
									OFFSET -18.476105 0.000000 0.000000
									CHANNELS 3 Xrotation Yrotation Zrotation
									JOINT newVegas:RightHandMiddle2
									{
										OFFSET -3.324875 0.000000 0.000000
										CHANNELS 3 Xrotation Yrotation Zrotation
										JOINT newVegas:RightHandMiddle3
										{
											OFFSET -4.596550 0.000000 0.000000
											CHANNELS 3 Xrotation Yrotation Zrotation
											End Site
											{
												OFFSET -0.057701 4.578827 0.399218
											}
										}
									}
								}
								JOINT newVegas:RightHandRing1
								{
									OFFSET -17.732719 0.121887 -4.201567
									CHANNELS 3 Xrotation Yrotation Zrotation
									JOINT newVegas:RightHandRing2
									{
										OFFSET -2.733170 0.000000 0.000000
										CHANNELS 3 Xrotation Yrotation Zrotation
										JOINT newVegas:RightHandRing3
										{
											OFFSET -3.178268 0.000000 0.000000
											CHANNELS 3 Xrotation Yrotation Zrotation
											End Site
											{
												OFFSET -0.119102 3.170624 0.185394
											}
										}
									}
								}
								JOINT newVegas:RightHandPinky1
								{
									OFFSET -15.989624 -0.606689 -7.535461
									CHANNELS 3 Xrotation Yrotation Zrotation
									JOINT newVegas:RightHandPinky2
									{
										OFFSET -2.538986 0.000000 0.000000
										CHANNELS 3 Xrotation Yrotation Zrotation
										JOINT newVegas:RightHandPinky3
										{
											OFFSET -2.593102 0.000000 0.000000
											CHANNELS 3 Xrotation Yrotation Zrotation
											End Site
											{
												OFFSET 0.150902 2.584198 0.152708
											}
										}
									}
								}
							}
							JOINT newVegas:Right_CapeC
							{
								OFFSET -15.715958 -8.608795 -6.935905
								CHANNELS 3 Xrotation Yrotation Zrotation
								JOINT newVegas:Right_CapeC1
								{
									OFFSET 0.000000 -8.688499 0.000000
									CHANNELS 3 Xrotation Yrotation Zrotation
									End Site
									{
										OFFSET 0.000000 8.688499 0.000000
									}
								}
							}
							JOINT newVegas:Right_Sleeve
							{
								OFFSET -0.267448 -0.649994 0.577675
								CHANNELS 3 Xrotation Yrotation Zrotation
								End Site
								{
									OFFSET 0.000000 15.991302 0.000000
								}
							}
						}
						JOINT newVegas:Right_CapeA
						{
							OFFSET -5.115540 -8.608795 -10.395824
							CHANNELS 3 Xrotation Yrotation Zrotation
							JOINT newVegas:Right_CapeA1
							{
								OFFSET 0.000000 -8.688499 0.000000
								CHANNELS 3 Xrotation Yrotation Zrotation
								End Site
								{
									OFFSET 0.000000 8.688499 0.000000
								}
							}
						}
						JOINT newVegas:Right_CapeB
						{
							OFFSET -26.118187 -8.608795 -7.079266
							CHANNELS 3 Xrotation Yrotation Zrotation
							JOINT newVegas:Right_CapeB1
							{
								OFFSET 0.000000 -8.688499 0.000000
								CHANNELS 3 Xrotation Yrotation Zrotation
								End Site
								{
									OFFSET 0.000000 8.688499 0.000000
								}
							}
						}
					}
				}
				JOINT newVegas:Left_Collar
				{
					OFFSET 18.625099 8.655502 8.828100
					CHANNELS 3 Xrotation Yrotation Zrotation
					JOINT newVegas:Left_Collar1
					{
						OFFSET 14.783401 10.540405 -1.259500
						CHANNELS 3 Xrotation Yrotation Zrotation
						End Site
						{
							OFFSET 0.000000 18.199875 0.000000
						}
					}
				}
				JOINT newVegas:Collar_Back
				{
					OFFSET 0.000000 15.630707 -20.132601
					CHANNELS 3 Xrotation Yrotation Zrotation
					End Site
					{
						OFFSET 0.000000 22.523010 0.000000
					}
				}
				JOINT newVegas:Left_Peck
				{
					OFFSET 17.239599 -5.132599 25.482599
					CHANNELS 3 Xrotation Yrotation Zrotation
					End Site
					{
						OFFSET 0.000000 22.523010 0.000000
					}
				}
				JOINT newVegas:Right_Peck
				{
					OFFSET -17.239599 -5.132202 25.482599
					CHANNELS 3 Xrotation Yrotation Zrotation
					End Site
					{
						OFFSET 0.000000 22.523010 0.000000
					}
				}
				JOINT newVegas:Right_Collar
				{
					OFFSET -18.625099 8.655792 8.828100
					CHANNELS 3 Xrotation Yrotation Zrotation
					JOINT newVegas:Right_Collar1
					{
						OFFSET -14.783401 10.539993 -1.259500
						CHANNELS 3 Xrotation Yrotation Zrotation
						End Site
						{
							OFFSET 0.000000 18.199631 0.000000
						}
					}
				}
			}
		}
		JOINT newVegas:Belly
		{
			OFFSET 0.000000 -6.540398 9.014299
			CHANNELS 3 Xrotation Yrotation Zrotation
			End Site
			{
				OFFSET 0.000000 11.566666 0.000000
			}
		}
	}
	JOINT newVegas:ElvisFacialAnim_Joint
	{
		OFFSET 1.000000 -95.330101 -8.825800
		CHANNELS 3 Xrotation Yrotation Zrotation
		End Site
		{
			OFFSET 0.000000 35.315800 0.000000
		}
	}
}
MOTION
Frames: 4
Frame Time: 0.016667
-3.526525 78.410515 3.057213 11.660449 -49.374413 11.268450 -0.000000 0.000001 0.000000 -69.006726 20.606927 47.787931 51.256332 -22.124246 3.397129 2.960948 1.488360 -15.125215 -0.000000 -0.000000 -0.000000 -0.000000 0.000000 0.000002 -33.115988 3.850949 -30.939575 58.819663 4.953494 -6.674914 -30.774660 -6.443305 30.151573 -0.000000 -0.000000 0.000000 -0.000003 -0.000003 0.000006 10.970015 2.720516 -2.032964 6.100712 5.566548 -4.284696 -5.786924 6.328130 -3.046183 0.458487 1.873441 -0.022645 0.458503 1.873430 -0.022646 0.000001 0.000001 0.000000 0.458563 1.873438 -0.022647 0.458425 1.873413 -0.022639 0.000000 0.000001 -0.000000 0.000001 0.000001 0.000000 -1.915073 -16.511784 -2.939003 -10.486669 2.625046 -45.366345 -22.934645 -26.042289 -16.052416 2.486712 -2.421355 6.911725 18.458441 -9.511654 13.216074 -1.151043 11.255588 -8.390549 -0.000003 0.000000 -0.000003 -1.232386 -5.767197 -0.192367 0.133069 -0.208717 -4.601616 -0.000003 -0.000002 0.000001 1.879045 4.660589 -4.596731 0.488056 -1.011739 -12.986295 0.000001 0.000001 -0.000001 3.021278 7.938960 -14.102999 -0.721416 -0.564646 -18.895746 -0.000000 0.000001 0.000002 2.009212 6.306005 -22.386379 -0.833142 -0.206657 -16.746497 -0.000000 0.000003 0.000001 -0.000004 0.000001 -0.000002 -0.000004 0.000001 -0.000002 -0.000005 0.000001 -0.000002 0.000002 0.000002 -0.000001 0.000002 0.000002 -0.000001 0.000002 0.000002 -0.000001 0.000001 0.000002 -0.000001 -5.102373 24.651549 1.530439 6.852341 -35.149960 57.689233 -21.079521 44.888912 20.017001 -0.116040 35.721223 7.538537 55.149563 18.649546 -29.698287 -0.442583 -14.180521 7.313142 -0.000001 -0.000001 0.000001 5.673386 7.585026 36.844171 1.050480 3.824488 68.900223 -0.000001 0.000001 -0.000001 -0.125687 1.886100 45.000773 -1.169016 3.204650 68.417636 -0.000002 0.000001 0.000002 -5.312008 1.216659 58.508821 -0.745210 1.667609 48.011278 0.000001 0.000000 0.000003 -7.756837 -9.376467 47.263994 -0.526027 1.541573 45.600529 0.000004 -0.000000 0.000001 -0.000002 -0.000001 -0.000000 -0.000002 0.000000 0.000001 -0.000002 -0.000001 -0.000001 -0.000000 0.000006 0.000003 0.000001 0.000006 0.000003 -0.000000 0.000006 0.000003 0.000001 0.000005 0.000003 -0.000000 -0.000000 0.000000 -0.000000 -0.000000 0.000000 -0.000000 -0.000000 0.000000 -0.000000 -0.000000 0.000000 -0.000000 -0.000000 0.000000 -0.000000 -0.000000 0.000000 -0.000000 -0.000000 0.000000 -0.000000 -0.000003 0.000001 -0.000000 0.000001 0.000000 
-3.269072 78.519501 2.894984 11.701169 -49.255960 11.093539 -0.000000 -0.000002 0.000000 -69.294673 20.547729 47.675431 50.921202 -22.189540 3.377304 3.418910 1.485500 -14.936183 0.000000 -0.000000 0.000000 0.000001 -0.000001 -0.000000 -33.132046 3.762815 -30.572200 58.467895 4.680746 -6.767265 -30.495712 -6.576981 30.236728 -0.000000 -0.000001 -0.000000 0.000002 0.000003 -0.000004 10.652879 2.757297 -1.707516 6.270522 5.497042 -4.598444 -5.595392 6.320238 -3.336134 0.518222 1.904052 -0.086765 0.518215 1.904048 -0.086767 0.000001 -0.000002 0.000000 0.518296 1.904020 -0.086762 0.518150 1.904089 -0.086773 -0.000000 -0.000001 0.000000 0.000001 -0.000002 0.000001 -1.910397 -16.163883 -3.090428 -12.030260 0.880589 -45.319169 -21.770893 -23.471154 -14.157650 2.477852 -3.270593 5.936779 18.463962 -9.514406 13.212510 -1.112725 11.306119 -8.396365 0.000003 -0.000001 0.000001 -1.232406 -5.775684 -0.414985 0.131531 -0.226371 -4.993308 0.000002 -0.000001 0.000000 1.878198 4.643278 -4.856700 0.484486 -1.023655 -13.186628 0.000000 -0.000002 0.000002 3.018636 7.917222 -14.361895 -0.723404 -0.572765 -19.096328 -0.000000 -0.000001 0.000001 2.005591 6.286229 -22.645479 -0.834521 -0.216351 -16.946995 0.000003 0.000000 -0.000001 0.000000 0.000000 -0.000000 0.000000 0.000000 -0.000000 -0.000001 0.000001 -0.000000 0.000001 0.000003 -0.000002 0.000001 0.000002 -0.000002 0.000001 0.000003 -0.000002 0.000000 0.000003 -0.000002 -5.012409 24.293277 1.216172 6.254680 -34.836458 57.425649 -21.507388 44.701153 20.437193 -0.231523 33.998428 6.851858 55.149563 18.649540 -29.698287 -0.442580 -14.180520 7.313138 0.000002 0.000000 -0.000000 5.673391 7.585028 36.844171 1.050478 3.824483 68.900223 0.000000 -0.000001 -0.000001 -0.125687 1.886100 45.000773 -1.169017 3.204645 68.417636 -0.000001 0.000001 -0.000000 -5.312004 1.216658 58.508821 -0.745208 1.667611 48.011275 0.000000 0.000001 -0.000002 -7.756834 -9.376464 47.263994 -0.526027 1.541571 45.600529 0.000005 0.000003 -0.000002 0.000000 -0.000001 -0.000002 0.000002 -0.000004 0.000006 0.000000 -0.000001 -0.000002 0.000000 -0.000003 -0.000001 0.000001 -0.000003 0.000001 0.000000 -0.000003 -0.000001 0.000001 -0.000003 0.000001 -0.000000 -0.000001 0.000001 -0.000000 -0.000001 0.000001 -0.000000 -0.000001 0.000001 -0.000000 -0.000001 0.000001 -0.000000 -0.000001 0.000001 -0.000000 -0.000001 0.000001 -0.000000 -0.000001 0.000001 -0.000000 0.000001 0.000001 -0.000000 -0.000002 0.000000 
-3.010861 78.640533 2.678037 11.542963 -49.209525 10.994534 -0.000001 -0.000000 0.000000 -69.271888 20.807738 47.452388 50.317409 -22.325382 3.336303 3.971502 1.585216 -14.796857 -0.000000 -0.000000 -0.000000 0.000000 -0.000002 -0.000002 -33.218232 3.817218 -30.425225 58.402420 4.698701 -6.865509 -30.383967 -6.746287 30.158878 0.000000 -0.000002 0.000000 -0.000002 0.000000 -0.000001 10.770995 2.680074 -1.852896 6.253150 5.455811 -4.730124 -5.604863 6.319128 -3.448274 0.571059 1.962407 -0.114034 0.571066 1.962403 -0.114039 -0.000001 -0.000000 0.000000 0.571060 1.962400 -0.114036 0.571077 1.962391 -0.114034 -0.000001 0.000001 0.000001 -0.000001 -0.000000 0.000000 -1.950320 -16.377038 -3.316429 -12.793724 0.478092 -45.036177 -20.515383 -22.352265 -13.137834 2.462313 -3.387148 5.660585 18.481160 -9.516263 13.200809 -1.002065 11.451873 -8.413332 0.000002 -0.000001 0.000001 -1.232768 -5.800262 -1.059712 0.126480 -0.277057 -6.121581 0.000002 -0.000001 0.000003 1.875554 4.593687 -5.610072 0.475109 -1.053478 -13.766677 -0.000002 -0.000001 -0.000001 3.010621 7.854299 -15.112308 -0.730632 -0.599787 -19.676423 0.000001 0.000003 0.000002 1.991103 6.229266 -23.395847 -0.839734 -0.247715 -17.526882 0.000002 0.000005 0.000004 0.000000 0.000001 0.000001 0.000000 0.000001 0.000001 -0.000001 0.000001 0.000001 -0.000001 0.000001 -0.000001 0.000000 0.000001 -0.000003 -0.000001 0.000001 -0.000001 -0.000001 0.000002 -0.000001 -4.920683 23.574275 1.114867 5.639818 -34.678062 56.669670 -22.473127 45.269633 21.754033 0.157395 31.484013 5.855152 55.149560 18.649540 -29.698287 -0.442582 -14.180519 7.313139 0.000000 -0.000000 -0.000001 5.673389 7.585026 36.844178 1.050477 3.824481 68.900223 0.000001 0.000000 0.000001 -0.125686 1.886100 45.000770 -1.169018 3.204650 68.417636 -0.000002 0.000001 -0.000001 -5.312007 1.216661 58.508828 -0.745210 1.667611 48.011278 0.000002 0.000001 -0.000004 -7.756837 -9.376464 47.263994 -0.526024 1.541575 45.600529 0.000001 -0.000000 0.000001 -0.000001 0.000000 0.000001 -0.000001 -0.000001 0.000000 -0.000001 0.000000 -0.000002 -0.000000 0.000001 0.000003 0.000000 0.000001 0.000003 -0.000000 0.000001 0.000003 0.000000 0.000001 0.000003 0.000001 0.000000 -0.000001 0.000001 0.000000 -0.000001 0.000001 0.000000 -0.000001 0.000001 0.000000 -0.000001 0.000001 0.000000 -0.000001 0.000001 0.000000 -0.000001 0.000001 0.000000 -0.000001 0.000001 -0.000001 -0.000000 -0.000001 -0.000000 0.000000 
-2.755543 78.763962 2.417754 11.406304 -49.308256 10.931028 -0.000000 0.000000 -0.000000 -69.154286 21.071948 47.291776 49.665686 -22.445943 3.291720 4.513365 1.771078 -14.745055 0.000000 0.000000 0.000000 -0.000000 -0.000000 0.000001 -33.549852 3.747840 -30.370375 58.445915 4.972312 -6.953055 -30.332331 -6.847209 29.924128 -0.000000 -0.000002 -0.000000 0.000000 0.000001 -0.000001 10.903935 2.568030 -2.004272 6.255484 5.389560 -4.873399 -5.586798 6.304852 -3.562657 0.591055 2.092662 -0.285636 0.591056 2.092665 -0.285639 0.000000 -0.000001 -0.000000 0.591053 2.092665 -0.285636 0.590987 2.092640 -0.285631 -0.000002 -0.000002 0.000001 0.000000 -0.000001 -0.000000 -2.019131 -15.755245 -4.014505 -14.105702 -0.623448 -44.437638 -18.714587 -20.851330 -11.947966 2.441576 -3.378180 5.069733 18.508518 -9.519175 13.182175 -0.822730 11.681117 -8.439632 0.000002 0.000003 -0.000004 -1.233370 -5.834173 -2.091549 0.116408 -0.357561 -7.916954 -0.000002 0.000001 -0.000003 1.870185 4.511105 -6.817010 0.462245 -1.098899 -14.694399 0.000001 0.000002 0.000001 2.992140 7.754475 -16.314033 -0.744045 -0.646160 -20.604041 0.000004 0.000001 0.000001 1.966467 6.138878 -24.598166 -0.848838 -0.297656 -18.454239 0.000002 0.000005 0.000002 -0.000001 0.000000 -0.000001 -0.000001 0.000000 -0.000001 -0.000002 0.000000 -0.000001 -0.000001 -0.000002 0.000001 -0.000001 -0.000001 -0.000003 -0.000001 -0.000002 0.000001 -0.000002 -0.000001 0.000001 -4.713508 23.018405 0.781703 5.134855 -34.583102 56.017028 -23.493894 45.872117 23.282993 0.566539 28.887360 4.638272 55.149560 18.649540 -29.698291 -0.442583 -14.180521 7.313137 0.000000 -0.000001 0.000001 5.673391 7.585025 36.844171 1.050479 3.824488 68.900216 -0.000001 -0.000002 -0.000002 -0.125683 1.886099 45.000770 -1.169017 3.204651 68.417636 0.000002 -0.000000 -0.000001 -5.312002 1.216656 58.508821 -0.745209 1.667609 48.011278 -0.000001 -0.000001 0.000001 -7.756838 -9.376466 47.263994 -0.526022 1.541576 45.600525 -0.000003 0.000003 0.000000 -0.000000 0.000002 -0.000003 -0.000000 -0.000001 0.000003 -0.000000 0.000002 -0.000002 -0.000001 0.000000 -0.000002 -0.000000 0.000000 -0.000001 -0.000001 0.000000 -0.000002 -0.000000 -0.000000 -0.000001 0.000002 0.000001 -0.000000 0.000002 0.000001 -0.000000 0.000002 0.000001 -0.000000 0.000002 0.000001 -0.000000 0.000002 0.000001 -0.000000 0.000002 0.000001 -0.000000 0.000002 0.000001 -0.000000 0.000001 0.000000 -0.000000 -0.000000 0.000000 -0.000000 
